<svg width="24" height="24" viewBox="0 0 24 24" fill="none" xmlns="http://www.w3.org/2000/svg">
<mask id="mask0_598_19629" style="mask-type:alpha" maskUnits="userSpaceOnUse" x="0" y="0" width="24" height="24">
<rect width="24" height="24" rx="5" fill="#D9D9D9"/>
</mask>
<g mask="url(#mask0_598_19629)">
<rect width="24" height="24" rx="5" fill="#E80B13"/>
<path d="M15.7087 17L12 14.4045L8.2913 17L9.70732 12.7995L6 10.204H10.5826L12 6L13.4174 10.204H18L14.2927 12.7995L15.7087 17ZM10.4983 13.3529L10.0584 14.6562L11.209 13.8511L10.4983 13.3529ZM12.791 13.8511L13.9407 14.6562L13.5017 13.3529L12.791 13.8511ZM10.8007 12.4568L12.0005 13.2973L13.2002 12.4568L12.7424 11.0992H11.2585L10.8007 12.4568ZM13.9907 11.903L15.1395 11.0992H13.7199L13.9911 11.903H13.9907ZM8.86092 11.0992L10.0102 11.903L10.2806 11.0992H8.86092ZM12.4404 10.204L12 8.8985L11.5596 10.204H12.4404Z" fill="#0CC05D"/>
</g>
</svg>
