<svg width="24" height="24" viewBox="0 0 24 24" fill="none" xmlns="http://www.w3.org/2000/svg">
<mask id="mask0_598_19616" style="mask-type:alpha" maskUnits="userSpaceOnUse" x="0" y="0" width="24" height="24">
<rect width="24" height="24" rx="5" fill="#D9D9D9"/>
</mask>
<g mask="url(#mask0_598_19616)">
<path d="M19.5813 0H15.6383L12.0538 2.6949L8.3552 0H4.41222C3.29367 0.000223942 2.2167 0.424021 1.39797 1.18615C0.534422 1.99429 2.95235 3.37271 2.95235 4.6501L-0.00976562 5.32138V8.36496L0.938494 12.2558L-0.00976562 15.6383V18.8448L2.71447 19.4477C2.71447 20.7772 0.580046 22.0546 1.51202 22.8627C2.31591 23.5629 3.34614 23.9484 4.41222 23.9479H8.42037L12.1646 21.178L15.5699 23.9544H19.5715C20.6767 23.9555 21.742 23.5414 22.5564 22.7943C23.4395 21.9861 21.4257 19.9951 21.4257 18.7047L23.9935 18.8513V15.6383L23.055 12.0016L24.0033 8.37474V5.15845L21.4354 4.30142C21.4354 3.02403 23.4591 2.00081 22.5955 1.19266C21.7778 0.428161 20.7007 0.00199328 19.5813 0Z" fill="#004CBA"/>
<path d="M22.5923 1.18943L12.0016 9.46967L1.41099 1.18943C0.966441 1.60248 0.611733 2.10267 0.368976 2.65882C0.126218 3.21498 0.000618589 3.81518 1.15764e-08 4.42201V5.15847L8.76252 12.0016L1.15764e-08 18.8448V19.5259C-4.44597e-05 20.1394 0.128041 20.7462 0.376066 21.3073C0.624091 21.8684 0.986583 22.3716 1.44032 22.7845L12.0016 14.5271L22.5629 22.7845C23.0167 22.3716 23.3792 21.8684 23.6272 21.3073C23.8752 20.7462 24.0033 20.1394 24.0032 19.5259V18.8448L15.2407 12.0016L24.0032 5.15847V4.42853C24.0035 3.8206 23.8784 3.21916 23.6356 2.66182C23.3928 2.10448 23.0376 1.60323 22.5923 1.18943Z" fill="white"/>
<path d="M23.665 2.7275C23.5067 2.34809 23.2961 1.99271 23.0393 1.67168L13.7587 8.92546L12.0023 9.46966L8.33302 8.9776L0.339537 2.7275C0.147168 3.19612 0.0369351 3.69437 0.0136719 4.2004L8.0267 10.4635L8.76316 12.0016L8.09188 15.2147L0.355837 21.266C0.518358 21.6433 0.732183 21.9964 0.991269 22.3153L10.4414 14.9246L12.0023 14.5336L15.6194 14.9866L23.6487 21.266C23.8417 20.801 23.9519 20.3058 23.9746 19.8029L15.7595 13.3768L15.2414 12.0016L15.7986 8.87658L23.665 2.7275Z" fill="#F4002F"/>
<path d="M0 8.36499H24V15.6383H0V8.36499Z" fill="white"/>
<path d="M8.36523 0H15.6386V24H8.36523V0Z" fill="white"/>
<path d="M9.63672 0H14.365V24H9.63672V0Z" fill="#F4002F"/>
<path d="M0 9.60001H24V14.4H0V9.60001Z" fill="#F4002F"/>
</g>
</svg>
